<svg id="visual" viewBox="0 0 900 600" width="900" height="600" xmlns="http://www.w3.org/2000/svg" xmlns:xlink="http://www.w3.org/1999/xlink" version="1.1"><path d="M0 139L12.5 157C25 175 50 211 75 221C100 231 125 215 150 218C175 221 200 243 225 245C250 247 275 229 300 219C325 209 350 207 375 194C400 181 425 157 450 153C475 149 500 165 525 182C550 199 575 217 600 229C625 241 650 247 675 232C700 217 725 181 750 165C775 149 800 153 825 167C850 181 875 205 887.5 217L900 229L900 0L887.5 0C875 0 850 0 825 0C800 0 775 0 750 0C725 0 700 0 675 0C650 0 625 0 600 0C575 0 550 0 525 0C500 0 475 0 450 0C425 0 400 0 375 0C350 0 325 0 300 0C275 0 250 0 225 0C200 0 175 0 150 0C125 0 100 0 75 0C50 0 25 0 12.5 0L0 0Z" fill="#111827"></path><path d="M0 349L12.5 355C25 361 50 373 75 372C100 371 125 357 150 358C175 359 200 375 225 371C250 367 275 343 300 345C325 347 350 375 375 380C400 385 425 367 450 367C475 367 500 385 525 383C550 381 575 359 600 367C625 375 650 413 675 420C700 427 725 403 750 394C775 385 800 391 825 389C850 387 875 377 887.5 372L900 367L900 227L887.5 215C875 203 850 179 825 165C800 151 775 147 750 163C725 179 700 215 675 230C650 245 625 239 600 227C575 215 550 197 525 180C500 163 475 147 450 151C425 155 400 179 375 192C350 205 325 207 300 217C275 227 250 245 225 243C200 241 175 219 150 216C125 213 100 229 75 219C50 209 25 173 12.5 155L0 137Z" fill="#0e1422"></path><path d="M0 445L12.5 446C25 447 50 449 75 453C100 457 125 463 150 474C175 485 200 501 225 498C250 495 275 473 300 464C325 455 350 459 375 463C400 467 425 471 450 479C475 487 500 499 525 497C550 495 575 479 600 481C625 483 650 503 675 508C700 513 725 503 750 493C775 483 800 473 825 463C850 453 875 443 887.5 438L900 433L900 365L887.5 370C875 375 850 385 825 387C800 389 775 383 750 392C725 401 700 425 675 418C650 411 625 373 600 365C575 357 550 379 525 381C500 383 475 365 450 365C425 365 400 383 375 378C350 373 325 345 300 343C275 341 250 365 225 369C200 373 175 357 150 356C125 355 100 369 75 370C50 371 25 359 12.5 353L0 347Z" fill="#090e1c"></path><path d="M0 601L12.5 601C25 601 50 601 75 601C100 601 125 601 150 601C175 601 200 601 225 601C250 601 275 601 300 601C325 601 350 601 375 601C400 601 425 601 450 601C475 601 500 601 525 601C550 601 575 601 600 601C625 601 650 601 675 601C700 601 725 601 750 601C775 601 800 601 825 601C850 601 875 601 887.5 601L900 601L900 431L887.5 436C875 441 850 451 825 461C800 471 775 481 750 491C725 501 700 511 675 506C650 501 625 481 600 479C575 477 550 493 525 495C500 497 475 485 450 477C425 469 400 465 375 461C350 457 325 453 300 462C275 471 250 493 225 496C200 499 175 483 150 472C125 461 100 455 75 451C50 447 25 445 12.5 444L0 443Z" fill="#020617"></path></svg>